<svg style="fill: #D50032;" class="circle-logo" xmlns="http://www.w3.org/2000/svg" viewBox="0 0 40 40">
    <path d="M36.5 17.3L33.1 19c-.3-1.3-1-2-2.3-2-1.7 0-2.5 1.4-2.5 3.6s.8 3.6 2.5 3.6c1.2 0 1.8-.6 2.2-1.6l3.5 1.3c-.9 2.1-2.8 3.5-5.8 3.5-4.1 0-6.5-2.8-6.5-6.8s2.5-6.8 6.6-6.8c3.2.1 5 1.8 5.7 3.5m-14.1 9.8h-3.9v-13h3.9v13zm-6.3-5.3c0 1.8-.2 2.7-.7 3.6-.9 1.4-3.2 2-5.2 2s-4.3-.6-5.2-2c-.5-.9-.7-1.8-.7-3.6v-7.7h3.9v7.8c0 .9.1 1.5.4 1.8.3.4.8.5 1.5.5s1.2-.2 1.5-.5c.3-.4.4-1 .4-1.8v-7.8h3.9v7.7zM40 20C40 9 31 0 20 0S0 9 0 20s9 20 20 20 20-9 20-20"></path>
</svg>
