<?xml version="1.0" encoding="utf-8"?>
<!-- Generator: Adobe Illustrator 24.0.0, SVG Export Plug-In . SVG Version: 6.00 Build 0)  -->
<svg version="1.1" id="Layer_1" xmlns="http://www.w3.org/2000/svg" xmlns:xlink="http://www.w3.org/1999/xlink" x="0px" y="0px"
	 viewBox="0 0 16 16" style="enable-background:new 0 0 16 16;" xml:space="preserve">
<style type="text/css">
	.st0{fill:#FFFFFF;}
	.st1{fill:#DB0032;}
</style>
<g>
	<rect x="1.4" y="5.4" class="st0" width="13.2" height="5.7"/>
	<path class="st1" d="M14.4,7l-1.3,0.6c-0.1-0.5-0.4-0.8-0.9-0.8c-0.6,0-1,0.5-1,1.4c0,0.9,0.3,1.4,1,1.4c0.4,0,0.7-0.2,0.8-0.6
		l1.4,0.5c-0.4,0.8-1.1,1.4-2.2,1.4c-1.6,0-2.5-1.1-2.5-2.6c0-1.6,1-2.6,2.5-2.6C13.4,5.6,14.1,6.3,14.4,7 M8.9,10.8H7.4V5.7h1.5
		V10.8z M6.5,8.7c0,0.7-0.1,1.1-0.3,1.4c-0.3,0.6-1.2,0.8-2,0.8c-0.8,0-1.7-0.2-2-0.8C2,9.7,1.9,9.4,1.9,8.7v-3h1.5v3
		c0,0.3,0,0.6,0.2,0.7c0.1,0.1,0.3,0.2,0.6,0.2c0.3,0,0.5-0.1,0.6-0.2C4.9,9.3,5,9.1,5,8.7v-3h1.5L6.5,8.7L6.5,8.7z M15.8,8
		c0-4.3-3.5-7.8-7.8-7.8S0.2,3.7,0.2,8c0,4.3,3.5,7.8,7.8,7.8C12.3,15.8,15.8,12.3,15.8,8"/>
</g>
</svg>
